<svg id="Layer_1" data-name="Layer 1" xmlns="http://www.w3.org/2000/svg" viewBox="0 0 1495.8 1833.11"><defs><style>.cls-1{fill:#00305b;}.cls-2{fill:#004f7f;}.cls-3{opacity:0.2;}.cls-4{fill:#0078a9;}.cls-5{opacity:0.15;}.cls-6{fill:#c6c6c6;}</style></defs><path class="cls-1" d="M288.06,1076.63a26.5,26.5,0,0,1-6.16-20.26l5.27-55Q295.52,914.2,336,854.4t92.45-95.29q52-35.48,135.05-80.8Q655.89,631.62,700,594.18t49.58-94.77q5.92-61.92-38.82-102.09t-125-47.85q-87.19-8.36-142.6,26.83t-61.6,99.4l-2.42,25.24q-2.43,25.26-29.94,22.59l-324.36-45c-7.66-.74-13.86-4.4-18.61-11a30.5,30.5,0,0,1-6-21.42l.66-6.88Q14.66,294.74,98.7,190.54T320.55,37.05Q458.34-12.22,628.09,4,795.46,20.06,915,89.39t177.15,180.15q57.63,110.86,44.48,248.45-9.89,103.2-53.51,171.93T983.51,799.56q-56,41-141.33,86T714,967q-42.87,36.42-48.32,93.75l-3.08,32.1a27.53,27.53,0,0,1-30.16,24.88l-325.67-31.2A26.48,26.48,0,0,1,288.06,1076.63ZM269,1565.49q-50.84-61.58-42.46-148.74,8.56-89.43,68.9-139.21t147.47-41.41Q530,1244.49,581,1304.91t42.35,149.87q-8.13,84.87-69.82,136.81t-148.82,43.6Q319.77,1627.06,269,1565.49Z"/><path class="cls-2" d="M1452.78,1810.57c-58.85,45.43-150.45,19.6-192.86-54.31l-52.24-91-36.49-63.64-100.75-175.69-8.2-14.29,48.68-37.62,54.68-42.23,72.6,71.36,76,74.66.15.08,65.54,64.41,69.16,67.92C1509.83,1670,1511.63,1765.14,1452.78,1810.57Z"/><g class="cls-3"><circle class="cls-4" cx="900.07" cy="1077.52" r="299.77"/></g><path class="cls-2" d="M842.71,694.06c-211.78,31.68-357.78,229-326.11,440.82s229,357.78,440.83,326.1,357.78-229,326.1-440.82S1054.49,662.38,842.71,694.06ZM950,1411.27c-184.33,27.58-356.11-99.5-383.68-283.82s99.5-356.11,283.83-383.68,356.11,99.5,383.68,283.83S1134.32,1383.7,950,1411.27Z"/><g class="cls-5"><path class="cls-6" d="M680.67,1018.85A17.59,17.59,0,0,1,652,999.94a300.47,300.47,0,0,1,72.63-109.79,17.58,17.58,0,0,1,24.43,25.3,265.36,265.36,0,0,0-64.2,97A17.47,17.47,0,0,1,680.67,1018.85Z"/></g></svg>