<svg xmlns="http://www.w3.org/2000/svg" viewBox="0 0 7691.32 3242.17"><defs><style>.cls-1{fill:#60f8ee;}</style></defs><g id="text"><path class="cls-1" d="M2345.83,1761.44c-.06-.39-.2-.74-.29-1.11s-.14-.56-.23-.83a11.72,11.72,0,0,0-1.4-2.92c-.08-.11-.18-.2-.26-.32a12,12,0,0,0-2-2.1c-.22-.19-.44-.36-.68-.54s-.39-.33-.6-.47A11.28,11.28,0,0,0,2338,1752h0l-343.23-122.2L1779.17,243.86a10.7,10.7,0,0,0-.3-1.11c-.07-.28-.13-.55-.22-.82a11.91,11.91,0,0,0-1.4-2.92c-.08-.12-.19-.21-.27-.33a12.24,12.24,0,0,0-2-2.09c-.22-.19-.45-.37-.68-.54s-.39-.34-.61-.48a12.38,12.38,0,0,0-2.32-1.12h0L1422.64,110.28a12,12,0,0,0-7.5-.17L771,306.41c-.13,0-.23.13-.35.17a12.15,12.15,0,0,0-2.87,1.41,2.25,2.25,0,0,0-.21.12,12,12,0,0,0-2.35,2.26c-.15.18-.28.35-.41.54a12,12,0,0,0-1.52,2.74L.71,2344.08a12.15,12.15,0,0,0-.64,2.68c0,.27,0,.52,0,.79a12,12,0,0,0,.05,2.08c0,.17,0,.33,0,.49L65,2767.19a12,12,0,0,0,7.8,9.43L421.5,2900.78h.1c1.12.39,2.29-.21,3.46-.16.15,0,.3-.68.45-.68h.16c.17,0,.32.72.49.71s.51-.17.76-.2c.7-.08,1.37-.51,2-.51H429l782.16-237.88,69.39,446.34a12.14,12.14,0,0,0,7.81,9.55l348.72,124.21c.11,0,.22-.43.33-.4a11.59,11.59,0,0,0,3.68.2h3.48l564-171.66a11.82,11.82,0,0,0,8.33-13.16l-104.16-669.39,305.69-93.15a11.94,11.94,0,0,0,8.33-13.26Zm-49.93,1L2028.19,1844l-28.11-186.91ZM1418.34,134.13l310.9,110.69-605.7,184.59L812.63,318.73ZM781.57,333.05l326.21,116.13-5,13.45L353.56,2457.24,184.42,2397l-157-55.93ZM87.5,2756.49,26.79,2366.28l213.48,76,109.63,39,60.72,390.2ZM1303.08,3098l-68.82-442.42,291.4-88.81L1626.19,3213Zm792.74-730a12,12,0,0,0-8.32,13.27l104.15,669.44-540.87,164.83-103.62-666.07a12,12,0,0,0-3-6.22c-.14-.15-.24-.33-.39-.48s-.56-.34-.83-.56-.75-.85-1.18-.85h1.67v-.3c0-.54-2.65-.88-3.61-1.18-.28-.09-1-.11-1.3-.18a15.4,15.4,0,0,0-2.35-.29c-.19,0-.48-.07-.67-.07s-.29.05-.42.05a12.71,12.71,0,0,0-3.11.46l-314.68,94.82A11.73,11.73,0,0,0,1213,2637L435.21,2874.07l-62.3-400.36L989.37,832.45l143-380.73,625.29-190.57,248.25,1599.59-.54.49v.06c0,.3.79.58.86.87a12.72,12.72,0,0,0,.73,1.59c.15.38.52.71.7,1.07a12.71,12.71,0,0,0,.69,1.19c.23.34.56.63.82,1a11.78,11.78,0,0,0,.85,1c.36.35.79,1.51,1.2,1.82s.52,1.53.82,1.53h0s0-.87,0-.87a10.61,10.61,0,0,0,2.75.79c.3.09.6-.07.91,0a12.24,12.24,0,0,0,2.1.19l.6,0c.12,0,.25-.09.38-.09a11.76,11.76,0,0,0,3.1-.47l302.42-92.17,77.18,496.05Z"/><path class="cls-1" d="M1338.25,1189.65a12,12,0,0,0-23.35-2.25c-9.24,30.84-299.57,716.09-451.79,1074.13a12,12,0,0,0,16,15.53c3-1.41,306.13-141.21,362.94-162.53,68.72-24.89,141.35-49,215.88-71.76a12,12,0,0,0,8.33-13.27l-116.64-749.67C1345.21,1251.39,1341.37,1221.05,1338.25,1189.65ZM1233.79,2092.1c-48,18-259.2,114.74-336.58,150.3,63.63-149.72,347.7-818.63,422.66-1002.46,1.89,14.91,3.94,29.47,6.14,43.57l115,739.43C1369.6,2044.89,1300,2068.12,1233.79,2092.1Z"/><path class="cls-1" d="M4354.44,1619c0-1.6,0-3.19,0-4.8-.22-13.28-.59-26.77-1.17-40.55,0-.31,0-.62,0-.93q-1.81-42.26-5.89-87.59c-.37-4-.8-8.14-1.19-12.2-1-10.63-2.1-21.34-3.3-32.22-.59-5.29-1.21-10.64-1.84-16q-1.77-15-3.78-30.41c-.73-5.66-1.47-11.32-2.25-17-1.48-10.76-3.08-21.68-4.72-32.66-.77-5.13-1.49-10.21-2.3-15.4-2.5-16.14-5.15-32.46-8-49.06C4273,1008,4197.22,798,4094.76,656.21,4047.29,586.67,3994.1,537,3936.65,508.5c-6.18-3.05-12.46-5.86-18.77-8.58-1.6-.69-3.22-1.37-4.83-2-5.88-2.44-11.79-4.76-17.78-6.91l-1.47-.55c-6.65-2.36-13.36-4.49-20.13-6.49l-3.58-1c-6.56-1.87-13.17-3.6-19.83-5.13l-.65-.16c-7.25-1.66-14.55-3.09-21.9-4.34-.67-.12-1.36-.22-2-.33-3.2-.53-6.39-1.09-9.62-1.55s-6.78-.82-10.19-1.21c-1-.13-2.11-.27-3.17-.38-6.94-.74-13.94-1.34-21-1.74-1.88-.11-3.77-.15-5.65-.23q-7.8-.34-15.69-.43c-1.34,0-2.65-.11-4-.11-2.28,0-4.56,0-7.16.07-6.4.26-12.74.79-19,1.43-1.62.17-3.22.36-4.83.55-2.14.25-4.31.44-6.42.74-2.67.37-5.28.9-7.91,1.35-1.79.3-3.6.58-5.37.91q-8.34,1.56-16.5,3.61c-.72.18-1.45.32-2.17.5q-9.28,2.42-18.36,5.45c-1.51.5-3,1.09-4.49,1.62-4.32,1.53-8.62,3.12-12.87,4.86-2.28.94-4.53,1.94-6.79,2.93q-5.13,2.26-10.19,4.73c-2.42,1.19-4.84,2.4-7.23,3.66-3.3,1.73-6.56,3.58-9.81,5.46-2.21,1.27-4.43,2.5-6.61,3.84-5.22,3.2-10.39,6.56-15.46,10.13l-.18.12c-4.1,2.89-8.12,6-12.1,9.25-.86.69-1.71,1.37-2.56,2.09q-5.62,4.7-11.07,9.84c-1,.93-1.95,1.91-2.92,2.86q-4.11,4-8.12,8.31c-1.19,1.27-2.39,2.51-3.57,3.81-3,3.3-5.88,6.74-8.77,10.25-.73.9-1.5,1.71-2.23,2.62-1.15,1.43-2.26,3-3.4,4.44l-1.22,1.6c-2.11,2.76-4.19,5.57-6.25,8.46-.33.46-.65.93-1,1.39q-8.73,12.39-16.88,26.3c-1.06,1.8-2.12,3.57-3.16,5.4-1.12,2-2.22,4-3.33,6-1.3,2.38-2.6,4.77-3.87,7.21-1,1.88-1.95,3.78-2.92,5.69q-2.07,4.09-4.1,8.3c-.86,1.79-1.72,3.58-2.58,5.4-1.48,3.17-2.94,6.41-4.39,9.67-.68,1.54-1.38,3.06-2.06,4.62-2.1,4.87-4.17,9.8-6.2,14.86-2.44,5.88-4.77,11.94-7,18.09-.6,1.62-1.19,3.24-1.78,4.88q-3.06,8.54-5.92,17.4c-.47,1.5-.93,3-1.41,4.54q-2.34,7.54-4.52,15.34c-.84,2.94-1.64,5.91-2.44,8.89q-1.39,5.28-2.71,10.67c-.68,2.73-1.42,5.38-2.07,8.14-.05.24-.05.47-.09.7-9.93,42.6-16.72,90-20.31,141.77,0,.33-.07.66-.07,1q-1.26,18.45-2,37.62c-4.09,107.2,6.92,237.45,32.72,387.15,24.86,144.32,57.39,269.72,96.68,372.71,39.29,103.25,86.16,190.41,139.36,259.15,53.17,67.32,108,115.39,163.07,142.86,50.62,25.37,104.29,38.22,159.51,38.22,5,0,10.07-.1,15.47-.33,62.37-4.27,117.54-23.17,164-56.17s82.75-87.9,107.49-162.3a554,554,0,0,0,21.87-72l.2-.46a11.46,11.46,0,0,0,.68-2c1-4.08,1.78-8.36,2.67-12.53l.66-3.13q16.52-78.87,18.1-178.66c0-1.29,0-2.59,0-3.9Q4354.68,1637.44,4354.44,1619ZM4058,646q8.71,11.53,17.22,24c100.49,139.11,174.9,345.76,221.15,614.23,2.82,16.36,5.42,32.44,7.9,48.35.78,5,1.48,10,2.23,15,1.63,10.83,3.21,21.6,4.66,32.22.79,5.68,1.52,11.3,2.26,16.93q1.93,14.88,3.68,29.48c.64,5.47,1.29,10.92,1.89,16.32,1.13,10.27,2.17,20.39,3.15,30.43.43,4.46.89,8.95,1.3,13.36,1.24,13.78,2.36,27.38,3.28,40.73,0,.45.08.91.11,1.35q1.51,21.86,2.42,42.92c.06,1.39.09,2.73.15,4.11q.77,18.51,1.09,36.41c.05,2.37.05,4.69.09,7,.14,11.21.18,22.26,0,33.1,0,2,0,3.91-.07,5.86-.19,12-.52,23.71-1,35.21,0,.51,0,1-.06,1.53q-3.46,75.33-16.36,137.57c-.18.84-.36,1.66-.53,2.49-1,4.74-2.17,9.25-3.25,13.87l-41.46,95.16c17.95-114.44,31.32-247.47-1.21-436.23-46.88-272.08-122.7-482.08-225.15-623.9-47.47-69.54-100.66-119.24-158.12-147.71a397.16,397.16,0,0,0-120.59-37.1,439.72,439.72,0,0,0-66.87-4c-10.22.42-20.41,1.33-30.27,2.72a279.66,279.66,0,0,0-123.27,48.71l-.67.46c-18.36,12.94-35.64,29.44-51.33,49a374.4,374.4,0,0,0-23.49,32.37q5.24-34,12.78-64.5c.84-3.4,1.68-6.81,2.58-10.15q1.16-4.39,2.37-8.71c1.4-5,2.85-9.92,4.36-14.76q.78-2.52,1.57-5,2.61-8.1,5.41-15.92c.58-1.63,1.18-3.26,1.77-4.87,2.18-5.88,4.4-11.69,6.74-17.3,1.92-4.8,3.88-9.48,5.87-14.09.64-1.48,1.3-2.91,1.94-4.37,1.38-3.1,2.76-6.19,4.18-9.21.79-1.69,1.58-3.35,2.38-5,1.31-2.7,2.62-5.37,3.95-8,.87-1.72,1.75-3.45,2.63-5.15,1.28-2.45,2.58-4.85,3.88-7.24.95-1.74,1.89-3.52,2.86-5.23,1.19-2.12,2.41-4.15,3.63-6.22q3.67-6.25,7.48-12.19c.61-.94,1.2-1.91,1.81-2.84,1.67-2.54,3.36-5,5.07-7.46.58-.84,1.16-1.69,1.75-2.52q2.64-3.72,5.33-7.27c.52-.7,1.05-1.39,1.58-2.07,1.72-2.24,3.45-4.43,5.21-6.58,2.65-3.25,5.34-6.42,8.09-9.47,1.14-1.27,2.3-2.48,3.45-3.71q3.54-3.8,7.17-7.36c.92-.9,1.83-1.83,2.75-2.71,3.19-3,6.43-5.9,9.7-8.65,1-.81,1.94-1.6,2.91-2.39,3.23-2.62,6.48-5.14,9.77-7.48.31-.22.61-.47.93-.69,4.84-3.42,9.77-6.62,14.78-9.68,1.45-.89,2.94-1.7,4.41-2.56,3.57-2.09,7.17-4.11,10.82-6,1.74-.92,3.51-1.79,5.27-2.66q5.35-2.64,10.81-5c1.69-.74,3.38-1.49,5.08-2.19,4.26-1.75,8.57-3.36,12.92-4.88,1.07-.37,2.12-.8,3.2-1.16,5.58-1.86,11.21-3.54,16.93-5,.73-.19,1.48-.33,2.21-.51q7.28-1.81,14.7-3.22c1.83-.35,3.68-.64,5.52-.94,4.07-.68,8.16-1.29,12.28-1.79,1.7-.21,3.39-.42,5.1-.59,5.64-.57,11.31-1.05,17.06-1.29,3.19-.05,6.37,0,9.56,0,5.64,0,11.26.18,16.85.45,1.18.06,2.36.09,3.53.15q10.3.59,20.45,1.68l2.36.29q9.76,1.11,19.38,2.69l1.41.23a378.47,378.47,0,0,1,40.31,9.16l3,.85c6.45,1.9,12.86,3.94,19.18,6.18l1,.36c5.77,2.06,11.48,4.31,17.15,6.66,1.46.6,2.91,1.21,4.37,1.84,6,2.56,11.88,5.22,17.71,8.09a295.39,295.39,0,0,1,39.6,23.78C3998.05,576.68,4028.93,607.52,4058,646Zm130.88,1424.85c-42.77,30.4-93.82,47.83-151.42,51.78-56.52,2.33-111.36-9.55-163-35.4-51.89-25.9-104-71.76-154.93-136.21-51.7-66.78-97.4-151.88-135.85-252.93-38.75-101.56-70.87-225.46-95.47-368.26-25.51-148.06-36.41-276.64-32.38-382.18q.72-19,2-37.23c9-42.85,29.91-73.34,51.18-99.88q21.45-26.76,46.87-44.72A256.3,256.3,0,0,1,3669,721c9.08-1.28,18.49-2.12,27.62-2.5a404,404,0,0,1,62.87,3.81,373.26,373.26,0,0,1,113.32,34.85c53.71,26.62,103.83,73.64,149.14,140,100.49,139.1,174.9,345.76,221.15,614.23,37.12,215.39,14.32,351.26-7.74,482.65q-3.27,19.49-6.42,38.73A207.26,207.26,0,0,1,4188.86,2070.82Z"/><path class="cls-1" d="M5012.83,1243.81c-42.14-244.57-118.06-462-225.63-646.22C4676.5,408,4527.62,257.31,4344.58,149.64,4171.26,50.35,3964.79,0,3730.93,0c-15.36,0-31.07.22-47,.66-364.85,20.25-630.38,158.08-789.28,409.76q-83.76,136.08-123,302.52a11.25,11.25,0,0,0-1.1,2.83L2717.21,943c-21.9,93.43-33.11,194.56-33.63,302.64s9.68,223.11,30.57,344.36c34.87,190.43,88.49,363.1,159.37,513.23,71.12,150.68,165,284.74,278.89,398.35,9.86,10.08,19.9,19.87,30,29.5,2.14,2,4.27,4.07,6.42,6.09q14.88,14,30.11,27.29c1.75,1.53,3.52,3,5.27,4.52q13.92,12,28.13,23.46c1.86,1.5,3.69,3,5.56,4.52q15.42,12.27,31.21,23.91c2.75,2,5.52,4,8.28,6.05,10,7.25,20.08,14.37,30.3,21.25,2.08,1.41,4.19,2.79,6.29,4.19q14,9.32,28.35,18.17,5.7,3.53,11.42,7c10,6,20,11.88,30.15,17.56,4.54,2.54,9.14,5,13.72,7.46q10,5.38,20.09,10.59,10.41,5.36,20.94,10.49,11.1,5.42,22.31,10.59,10.14,4.65,20.39,9.07c3.89,1.69,7.82,3.34,11.74,5q20,8.41,40.42,16.08c2.22.83,4.43,1.68,6.65,2.5q39.33,14.45,80.14,26.08l.95.27a1201.64,1201.64,0,0,0,140.1,30.81l6.7,1.07c5.39.83,10.7,1.81,16.12,2.58,3.51.49,7.14.83,10.67,1.29q15.51,2.07,31.2,3.79c6,.65,12.09,1.21,18.17,1.78q14.26,1.36,28.69,2.45c4.11.3,8.19.65,12.32.92q20.93,1.38,42.19,2.13c3.43.12,6.88.26,10.33.37,15,.44,30,.79,45.26.79h0c14.49,0,29.32-.25,44.36-.66q17.48-1,34.73-2.29c1.27-.09,2.53-.23,3.8-.33,32.86-2.55,65-6,95.95-10.33,177-24.83,327.08-80,446.09-163.93a758.12,758.12,0,0,0,153.77-144.12c4.18-5.19,8.26-10.51,12.33-15.85.38-.49.77-1,1.14-1.45,4.33-5.71,8.56-11.51,12.76-17.37,1.11-1.55,2.27-3.08,3.37-4.65,3.63-5.15,7.16-10.38,10.67-15.63,1.46-2.16,3-4.29,4.4-6.47q7.26-11.05,14.16-22.35c54.27-87.4,94.47-185.81,119.48-292.49L5013.31,1916a10.25,10.25,0,0,0,.22-1.64,1177.38,1177.38,0,0,0,22.8-130.82C5055,1624.22,5047.08,1442.61,5012.83,1243.81Zm-73.1,881.36-3,12.68c-24.42,104.16-63.62,200.16-116.57,285.43q-6.73,11-13.8,21.77c-1.09,1.66-2.23,3.26-3.33,4.9-3.78,5.68-7.6,11.33-11.53,16.88-.47.66-.94,1.29-1.41,1.94-143.33,201-375.51,316.55-691.15,344.07-17.37,1.51-34.89,2.84-52.57,3.81q-16.3.43-32.45.53c-2.2,0-4.39,0-6.59,0-8.77,0-17.52,0-26.21-.13-1.51,0-3-.08-4.5-.1-184.11-3.37-350.79-40.36-498.85-110.65l-.23-.11q-36.34-17.27-71.16-37.28-6.37-3.64-12.7-7.4c-5.95-3.51-11.9-7-17.77-10.65q-13.68-8.48-27.13-17.38c-4.44-2.94-8.84-6-13.24-9q-10.87-7.44-21.59-15.16c-3.21-2.32-6.46-4.58-9.66-6.94q-14.87-11-29.38-22.51c-3-2.36-6-4.78-8.94-7.19q-13.52-10.93-26.77-22.33c-1.3-1.12-2.62-2.2-3.91-3.32-10-8.7-19.81-17.66-29.55-26.78q-3.6-3.37-7.18-6.79c-9.84-9.37-19.61-18.88-29.2-28.68-112-111.76-204.31-243.56-274.25-391.75s-123-318.93-157.45-507.2q-3.8-22-7.12-43.79-23.24-152.28-23.1-290.16c.1-104.87,10.38-203.06,30.83-293.85-.68,15.66,0,31.48-.23,47.46-.06,4.52,1.12,9.15,1.12,13.7v5c0,15.92-.9,32-.45,48.21.17,6.45-.2,12.9.05,19.39.26,6.92.28,13.86.63,20.83.54,10.85,1,21.78,1.78,32.76.37,5.49.7,11,1.13,16.5.88,11.63,1.84,23.32,3,35.08.44,4.73.89,9.46,1.37,14.22,1.5,14.79,3.1,29.65,4.95,44.65.12.93.25,1.88.36,2.81,1.83,14.68,3.88,29.48,6,44.37.59,4,1.18,8.07,1.8,12.12,2.38,15.77,4.88,31.61,7.63,47.61q9.81,53.55,21.59,105.21c34,149.18,80.19,286,137.79,408,66.67,141.28,153.34,267.93,257.76,376.82q10.44,10.89,21.12,21.54c9.86,10.09,19.91,19.88,30,29.52,2.13,2,4.26,4.05,6.39,6.05q14.91,14,30.16,27.33c1.72,1.5,3.46,3,5.19,4.44q14,12.07,28.28,23.6c1.81,1.46,3.6,2.95,5.42,4.4q15.48,12.33,31.33,24c2.69,2,5.39,3.94,8.1,5.91,10.12,7.34,20.33,14.55,30.67,21.52,1.89,1.28,3.81,2.53,5.72,3.8q14.26,9.5,28.82,18.46c3.69,2.3,7.39,4.59,11.12,6.84q15.07,9.09,30.41,17.72c4.4,2.46,8.87,4.83,13.31,7.23q10.28,5.57,20.68,10.9,9.41,4.85,18.92,9.53,12,5.88,24.22,11.49,9.91,4.53,19.93,8.87c4.19,1.82,8.42,3.59,12.65,5.35q19.35,8.14,39.08,15.55c2.55,1,5.1,1.93,7.66,2.88q38.92,14.3,79.31,25.82l2,.57a1202.11,1202.11,0,0,0,138.67,30.52c2.69.42,5.38.87,8.08,1.28,5.22.8,10.36,1.76,15.62,2.5,3.41.47,6.93.8,10.35,1.26q15.8,2.1,31.78,3.86c5.8.62,11.67,1.16,17.52,1.71q14.65,1.42,29.49,2.52c3.94.29,7.84.63,11.8.88q21,1.39,42.4,2.14c3.39.12,6.78-.33,10.18-.22,15,.45,30.07.21,45.3.21h0c14.48,0,29.28.34,44.31-.07,15.24-.84,30.24-1.67,45.12-2.89,30.6-2.5,60.56-5.58,89.36-9.62,177-24.83,327.08-79.91,446.1-163.86A758.22,758.22,0,0,0,4835,2292.27c4.24-5.26,8.38-10.65,12.51-16.05l.9-1.16c4.49-5.91,8.88-11.93,13.22-18,1-1.33,1.95-2.62,2.89-4,3.85-5.46,7.6-11,11.33-16.6,1.25-1.85,2.53-3.68,3.77-5.54q7.27-11.1,14.2-22.43,6.73-10.84,13.17-21.93c1.27-2.18,2.49-4.39,3.74-6.58,3-5.25,6-10.52,8.88-15.85,1.41-2.59,2.78-5.21,4.17-7.82,2.7-5.07,5.38-10.17,8-15.31,1.32-2.59,2.61-5.19,3.91-7.79S4938.41,2127.88,4939.73,2125.17Zm72.84-344.37a1143.12,1143.12,0,0,1-24.61,138c-1.31,5.41-2.72,10.77-4.11,16.13q-3.89,14.89-8.15,29.52c-1.46,5-2.91,10-4.44,15q-2.68,8.68-5.52,17.25c-1.82,5.53-3.7,11-5.6,16.49-1.72,4.91-3.38,9.85-5.16,14.72q-5.25,14.31-10.93,28.35c-1.6,4-3.26,7.89-4.9,11.82q-4.47,10.66-9.16,21.16c-1.48,3.32-2.95,6.66-4.47,10q-6.89,14.88-14.21,29.45c-1,2-2.12,4-3.16,6.05q-6.37,12.33-13.08,24.41c-1.49,2.69-3,5.39-4.51,8.06-5.55,9.74-11.2,19.4-17.09,28.88q-6.75,11.09-13.84,21.85c-.92,1.39-1.88,2.74-2.81,4.12-4,6-8,11.87-12.08,17.68-.32.47-.67.93-1,1.4-141,198.06-368,313.27-676.07,343.19l-.55.05c-3.2.31-6.46.54-9.68.83-19,1.72-38.29,3.19-57.75,4.26q-16.29.45-32.41.53c-2.39,0-4.76,0-7.14,0-8.51,0-17,0-25.44-.12-2,0-3.92-.09-5.89-.13-9.13-.18-18.23-.39-27.28-.73l-2.11-.09q-31.62-1.23-62.54-3.79a1280.81,1280.81,0,0,1-153.52-22q-14.88-3.09-29.58-6.52a1104,1104,0,0,1-221.21-76.77c-1-.48-2-.94-3-1.43q-35.25-16.79-69.06-36.18-7.22-4.12-14.37-8.37c-5.55-3.29-11.1-6.56-16.59-9.94q-14-8.67-27.73-17.77c-4.22-2.8-8.4-5.67-12.59-8.53q-11.26-7.7-22.37-15.7c-3-2.19-6.1-4.33-9.12-6.55q-15-11.05-29.62-22.69c-2.92-2.31-5.81-4.67-8.71-7-9.09-7.36-18.11-14.84-27-22.53-1.25-1.07-2.52-2.11-3.77-3.19-10-8.72-19.85-17.7-29.6-26.84q-3.59-3.33-7.13-6.73c-9.85-9.39-19.62-18.9-29.22-28.71-84-83.82-156.94-178.92-217.65-283.73q-30.36-52.42-56.6-108c-70-148.25-123-318.93-157.46-507.2-2.35-13.63-4.52-27.16-6.59-40.63-.66-4.27-1.26-8.5-1.89-12.75q-2.07-13.93-3.95-27.76-1-7.25-1.91-14.47-1.7-13.23-3.19-26.34c-.54-4.66-1.1-9.34-1.61-14q-1.76-16.25-3.22-32.3c-.6-6.53-1.13-13-1.66-19.5-.61-7.49-1.23-15-1.75-22.41-.49-7.1-.91-14.14-1.32-21.19-.28-4.85-.56-9.69-.8-14.51q-.61-12.16-1.06-24.23c-.11-2.68-.18-5.33-.26-8-8.16-258.16,43-478.54,153.15-657.45,154.46-244.65,413.63-378.74,770-398.52,15.41-.43,30.89-.64,46-.64,229.64,0,432.1,49.28,601.64,146.41,179.36,105.5,325.37,253.32,434,439.33,106.13,181.75,181.06,396.48,222.71,638.22C5023.13,1444.41,5031,1623.71,5012.57,1780.8Z"/><path class="cls-1" d="M7691.11,2352.05l-14.28-493.8a11.87,11.87,0,0,0-1.66-5.74l-116-195.92c-.07-.14-.21-.22-.29-.35a11.63,11.63,0,0,0-2.13-2.52c-.07-.06-.11-.14-.19-.2l0,0a11.89,11.89,0,0,0-2.84-1.7c-.29-.12-.58-.24-.88-.34a12.21,12.21,0,0,0-3.21-.7c-.15,0-.29,0-.43,0a12.23,12.23,0,0,0-2.09.09L7309.42,1687,7269.17,374.32a11.94,11.94,0,0,0-1.66-5.73l-116-195.92c-.08-.13-.21-.21-.29-.34a12.12,12.12,0,0,0-2.12-2.52c-.08-.06-.13-.14-.2-.2a0,0,0,0,0,0,0,11.36,11.36,0,0,0-2.88-1.71c-.26-.12-.52-.48-.79-.58a10.47,10.47,0,0,0-3.32-1h-.19a16.6,16.6,0,0,0-2.28.36l-741.28,112.8a12.08,12.08,0,0,0-8.34,5.54L5252.4,2102.31c-1.26,2,.11,4.35.18,6.71l13.49,397.69v.09c0,.29-1.9.56-1.87.85.07.63-.85,1.25-.68,1.86.08.32-.28.62-.17.93a9.74,9.74,0,0,0,.47,1.62c.07.13,0,.27,0,.4l115.9,195.91a11.92,11.92,0,0,0,10.26,5.87,11.29,11.29,0,0,0,1.73-.13L6545.9,2543.69l12,417.23a.24.24,0,0,0,0,.08c0,.29.08.56.11.85a11.46,11.46,0,0,0,.31,1.86c.09.32.22.62.34.94a12.06,12.06,0,0,0,.7,1.61c.08.13.1.28.18.4l116,195.93a12,12,0,0,0,10.29,5.87,12.34,12.34,0,0,0,1.8-.14l648.93-98.63c.15,0,.27-.09.41-.12.32-.06.63-.17.94-.26a11.52,11.52,0,0,0,3-1.27c.2-.12.42-.22.62-.35s.67-.52,1-.8a14.06,14.06,0,0,0,1.25-1.19c.12-.14.25-.28.37-.44a11.51,11.51,0,0,0,2.75-7.39,12.38,12.38,0,0,0-.21-2.3l-18.4-635.79L7681,2366.17l.18-.06a11.91,11.91,0,0,0,10.13-11.77A12.35,12.35,0,0,0,7691.11,2352.05ZM7245.37,378.12l40.16,1309.78-88.24,15.77-42.74-1479ZM5396.18,2689.29l-102.84-173.76L6317.1,2359.92l222.5-33.82,5.59,193.52ZM6569.3,2534.17a11.82,11.82,0,0,0,1.05-4.84l-7.3-217.48a12.57,12.57,0,0,0-.17-1.39c-.06-.36-.06-.74-.14-1.1s-.25-.69-.38-1.05a10.59,10.59,0,0,0-.46-1.3,12.83,12.83,0,0,0-.74-1.17,9.37,9.37,0,0,0-.59-1,12,12,0,0,0-1.61-1.66c-.05-.05-.09-.11-.15-.16l0,0a11.79,11.79,0,0,0-3.21-1.84c-.22-.08-.44-.18-.67-.25a11.87,11.87,0,0,0-3.5-.62c-.08,0-.17,0-.25,0a12.11,12.11,0,0,0-1.8.13L5285.58,2492.52l-11-380.55L6407.2,302.43l722.5-109.82,44.09,1525.62a12,12,0,0,0,.35,2.54c0,.15.11.29.16.44a11.69,11.69,0,0,0,.7,1.93c.16.31.38.58.55.87a10.31,10.31,0,0,0,.8,1.26,12.14,12.14,0,0,0,.93,1c.27.27.5.57.8.82l0,0,.07.07c.07,0,.15.07.21.12a12,12,0,0,0,3,1.65c.23.09.44.19.67.27a11.89,11.89,0,0,0,3.45.59c.08,0,.17,0,.26,0a10.71,10.71,0,0,0,1.26-.11c.17,0,.35,0,.53,0l349.83-53.17L7551,2148.19l-352.71,53.61c-.35,0-.66.2-1,.28-.17.05-.35,0-.52.06s-.28.16-.44.21a11.16,11.16,0,0,0-1.7.73,8.84,8.84,0,0,0-.85.48l-.19.11c-.15.1-.34.17-.49.28a12.36,12.36,0,0,0-2.06,1.9l-.15.15c-.09.1-.15.24-.25.36s-.34.55-.52.83a12,12,0,0,0-.83,1.31,6.75,6.75,0,0,0-.25.76,5.79,5.79,0,0,0-.25.57c-.08.23-.11.46-.17.69-.28,1-1.12,2.09-1.12,3.15,0,.1-.72.19-.72.29v.23l19.11,637.52-624.76,95ZM6692,3143.47,6589.2,2969.74,7212.63,2875l10,16.95,92.8,156.78Zm538.65-285-8.16-282-9.15-317,90.8,153.42,17.33,599Zm91.53-462-102.82-173.73,159-24.17,178.65-27.15,102.83,173.72ZM7575.1,2155l-12.9-446.4L7653,1862l12.91,446.39Z"/><path class="cls-1" d="M6528.1,1101.12c-.82-28.86-.67-57.62.48-85.47a12,12,0,0,0-22.51-6.1c-11.68,22-47.33,84.11-76,134-18.11,31.52-33.74,58.75-40.52,71l-461.76,716.83a11.75,11.75,0,0,0-1.29,2.85,6.09,6.09,0,0,0-.21.73,12.74,12.74,0,0,0-.38,2.79c0,.09,0,.17,0,.25a12.75,12.75,0,0,0,.46,3c.06.23.14.45.22.67a12.15,12.15,0,0,0,1.3,2.75s0,0,0,.06l0,0a12.1,12.1,0,0,0,1.79,2.08c.2.18.41.31.6.48.35.28.67.58,1.05.83.14.09.29.11.43.19a11,11,0,0,0,2,.91c.31.12.62,1.26.94,1.34,1,.28,2,1.42,3.05,1.42h-3v-1.28s2.95-.4,3.67-.53c139.48-25.28,506.27-86.9,597.47-100.76a12.36,12.36,0,0,0,10.53-12.2l-16.08-650ZM5962.79,1921.2l446.88-693.73c0-.06.06-.13.1-.2l.3-.46c7.1-12.74,22.7-39.91,40.76-71.36s37.54-65.37,52.84-92.39q0,19.28.54,38.72l2.47,85.73,16,639.45C6423.25,1842.43,6112.06,1894.65,5962.79,1921.2Z"/></g></svg>