<svg id="Layer_1" data-name="Layer 1" xmlns="http://www.w3.org/2000/svg" viewBox="0 0 1795.87 1889.4"><defs><style>.cls-1,.cls-3{fill:#004f7f;}.cls-1{opacity:0.4;}.cls-2{fill:#002e51;}.cls-4{opacity:0.2;}.cls-5{fill:#0078a9;}.cls-6{opacity:0.15;}.cls-7{fill:#c6c6c6;}</style></defs><circle class="cls-1" cx="862.34" cy="862.34" r="862.34"/><path class="cls-2" d="M862.34,1724.67c222.26,0,424.84-84.13,577.75-222.23l-56.81-234.35a202.65,202.65,0,0,0-137.44-124.25L1079,1099.43a87.05,87.05,0,0,1-63.7-71.26l-6.09-40.8c78.44-76.77,130.65-208.72,130.65-339.21,0-201.34-124.24-339-277.49-339s-277.49,137.68-277.49,339c0,130.49,52.21,262.44,130.65,339.21l-6.1,40.8a87.05,87.05,0,0,1-63.7,71.26l-166.86,44.41A202.61,202.61,0,0,0,341.4,1268.09l-56.81,234.35C437.5,1640.54,640.08,1724.67,862.34,1724.67Z"/><path class="cls-3" d="M1762.07,1871.69c-46.24,35.7-118.22,15.4-151.54-42.67l-41-71.52-28.67-50-79.17-138-6.44-11.24,38.25-29.55,43-33.19,57,56.08,59.68,58.66.12.06,51.5,50.61,54.33,53.37C1806.9,1761.2,1808.31,1836,1762.07,1871.69Z"/><g class="cls-4"><circle class="cls-5" cx="1327.78" cy="1295.71" r="235.54"/></g><path class="cls-3" d="M1282.71,994.41c-166.4,24.89-281.12,180-256.22,346.37s180,281.12,346.36,256.23,281.12-180,256.23-346.37S1449.12,969.52,1282.71,994.41ZM1367,1558c-144.83,21.66-279.8-78.18-301.47-223s78.18-279.81,223-301.47,279.8,78.18,301.46,223S1511.84,1536.28,1367,1558Z"/><g class="cls-6"><path class="cls-7" d="M1155.4,1249.61a13.82,13.82,0,0,1-22.51-14.86,236,236,0,0,1,57.06-86.27,13.82,13.82,0,1,1,19.2,19.88,208.5,208.5,0,0,0-50.44,76.23A13.79,13.79,0,0,1,1155.4,1249.61Z"/></g></svg>