<svg xmlns="http://www.w3.org/2000/svg" viewBox="0 0 679.52 532.97"><defs><style>.cls-1{fill:#003053;}.cls-2{fill:#002947;}.cls-3{fill:#003a5e;}</style></defs><g id="objects"><path class="cls-1" d="M612.55,0,67,42.48a67,67,0,0,0-67,67L42.48,376.79a67,67,0,0,0,67,67l25.75,1.58h0S150.48,503,120.5,533c0,0,89.3-21.59,103.7-82.15l345.87,21.26a67,67,0,0,0,67-67L679.52,67A67,67,0,0,0,612.55,0Z"/><path class="cls-2" d="M678.27,54.19q-1.18,27.27-4.28,54.52c-4.21,37.44-9.84,74.8-16.48,111.89-6,33.38-13,67.85-28.27,98.45-25.56,51.39-80.82,70.38-134.49,78.43-56.12,8.42-112.51,5.58-168.92,9-31.07,1.89-62.28,4.18-93.43,2.79-26.77-1.19-57-3.48-80.72-17.31-45.8-26.75-53.18-93.22-59.44-140.45C85.11,197.7,71.48,127.44,108.77,81.26,126,59.87,148.33,50.38,173.6,41.45c8.32-3,18.93-5.84,29.46-9.56L67,42.48a67,67,0,0,0-67,67L42.48,376.79a67,67,0,0,0,67,67l25.75,1.58h0S150.48,503,120.5,533c0,0,89.3-21.59,103.7-82.15l345.87,21.26a67,67,0,0,0,67-67L679.52,67A67.21,67.21,0,0,0,678.27,54.19Z"/><path class="cls-3" d="M546.67,178.1a13.74,13.74,0,0,1-13.74,13.74H146.58a13.74,13.74,0,0,1-13.73-13.74h0a13.74,13.74,0,0,1,13.73-13.74H532.93a13.74,13.74,0,0,1,13.74,13.74Z"/><path class="cls-3" d="M546.67,236a13.74,13.74,0,0,1-13.74,13.74H146.58A13.74,13.74,0,0,1,132.85,236h0a13.74,13.74,0,0,1,13.73-13.74H532.93A13.74,13.74,0,0,1,546.67,236Z"/><path class="cls-3" d="M546.67,294a13.74,13.74,0,0,1-13.74,13.74H146.58A13.74,13.74,0,0,1,132.85,294h0a13.74,13.74,0,0,1,13.73-13.74H532.93A13.74,13.74,0,0,1,546.67,294Z"/></g></svg>