<svg id="Layer_1" data-name="Layer 1" xmlns="http://www.w3.org/2000/svg" viewBox="0 0 1601.8 1802.13"><defs><style>.cls-1,.cls-3{fill:#004f7f;}.cls-1,.cls-2{opacity:0.4;}.cls-2{fill:#004772;}.cls-4{opacity:0.2;}.cls-5{fill:#0078a9;}.cls-6{opacity:0.15;}.cls-7{fill:#c6c6c6;}</style></defs><g id="objects"><ellipse class="cls-1" cx="739.29" cy="1649.86" rx="569.14" ry="66.28"/><path class="cls-1" d="M909.74,1339.69c0,92-76.32,166.55-170.45,166.55s-170.46-74.57-170.46-166.55S909.74,1247.7,909.74,1339.69Z"/><path class="cls-2" d="M909.74,1339.69c0,92-76.33,166.58-170.49,166.58-75.23,0-141.57-48.19-163.25-118.59,66.35,65.42,174.41,65.9,241.36,1.07,44.65-43.23,61.36-106.94,43.5-165.83A164.24,164.24,0,0,1,909.74,1339.69Z"/><path class="cls-1" d="M1478.54,1196.85v59.94c0,31.82-26.4,57.61-59,57.61H59c-32.56,0-59-25.79-59-57.61H0v-59.94a57.61,57.61,0,0,1,36-53,213.09,213.09,0,0,0,95.08-77,205.57,205.57,0,0,0,35.65-115.58v-289c0-278.16,209-513.35,481-557.1a83.62,83.62,0,0,1-1.24-14.56c.94-50,43.18-89.77,94.34-88.86,49.85.89,90,40.16,90.95,88.86a87.37,87.37,0,0,1-1.18,14.35c277.24,44,480.94,277.88,481,552.31v294.1c0,84,51.52,159.9,130.74,192.63a57.6,57.6,0,0,1,36,53Z"/><path class="cls-2" d="M1478.54,1196.85v59.94c0,31.82-26.4,57.61-59,57.61H90.3l521-63.22c305-37,525.82-303.2,498.42-602.28C1089.25,425.05,985.86,256,764.2,112.23,791.29,38.43,735.75,14.54,703.57,7c47.3-19.2,101.58,2.69,121.24,48.91a88.76,88.76,0,0,1,7.1,34.65,86.29,86.29,0,0,1-1.18,14.35c277.24,44,481,277.88,481,552.31v294.1c0,84,51.51,159.9,130.73,192.63a57.61,57.61,0,0,1,36,53Z"/></g><path class="cls-3" d="M1568,1784.42c-46.24,35.7-118.21,15.4-151.53-42.67l-41-71.51-28.67-50-79.17-138-6.44-11.23,38.25-29.56,43-33.18,57.05,56.07,59.68,58.66.12.07,51.5,50.61L1565,1627C1612.83,1673.93,1614.24,1748.73,1568,1784.42Z"/><g class="cls-4"><circle class="cls-5" cx="1133.72" cy="1208.44" r="235.54"/></g><path class="cls-3" d="M1088.65,907.14c-166.41,24.9-281.12,180-256.23,346.37s180,281.12,346.37,256.23,281.12-180,256.22-346.37S1255.05,882.25,1088.65,907.14Zm84.29,563.54c-144.83,21.67-279.8-78.18-301.47-223s78.19-279.8,223-301.47,279.8,78.18,301.47,223S1317.77,1449,1172.94,1470.68Z"/><g class="cls-6"><path class="cls-7" d="M961.33,1162.34a13.82,13.82,0,0,1-22.51-14.86,236.08,236.08,0,0,1,57.06-86.26,13.82,13.82,0,1,1,19.2,19.87,208.54,208.54,0,0,0-50.44,76.24A13.75,13.75,0,0,1,961.33,1162.34Z"/></g></svg>