<svg xmlns="http://www.w3.org/2000/svg" viewBox="0 0 476.47 566"><defs><style>.cls-1{fill:#d6d6d6;}.cls-2{fill:#969696;}.cls-3{fill:#fff;}</style></defs><g id="objects"><ellipse class="cls-1" cx="238.24" cy="544.14" rx="183.41" ry="21.86"/><circle class="cls-1" cx="238.24" cy="441.84" r="54.93"/><path class="cls-2" d="M293.17,441.84a54.94,54.94,0,0,1-107.55,15.83,55,55,0,0,0,91.8-54.34A54.81,54.81,0,0,1,293.17,441.84Z"/><path class="cls-1" d="M476.47,394.73V414.5a19,19,0,0,1-19,19H19a19,19,0,0,1-19-19V394.73a19,19,0,0,1,11.61-17.49,69,69,0,0,0,30.64-25.41,68.94,68.94,0,0,0,11.49-38.12V218.39c0-91.74,67.35-169.31,155-183.74a28.1,28.1,0,0,1-.4-4.8,29.86,29.86,0,0,1,59.71,0,29.41,29.41,0,0,1-.38,4.73,184.57,184.57,0,0,1,155,182.16v97a69,69,0,0,0,42.13,63.53,19,19,0,0,1,11.6,17.49Z"/><path class="cls-2" d="M476.47,394.73V414.5a19,19,0,0,1-19,19H29.1L197,412.65c98.28-12.2,169.45-100,160.62-198.64-6.6-73.83-39.92-129.59-111.35-177C255,12.67,237.1,4.79,226.73,2.29a29.89,29.89,0,0,1,41.36,27.56,29.41,29.41,0,0,1-.38,4.73,184.57,184.57,0,0,1,155,182.16v97a69,69,0,0,0,42.13,63.53,19,19,0,0,1,11.6,17.49Z"/><path class="cls-3" d="M196.66,61.42c-25.46,6.14-97.29,32.78-119,140.46a3.93,3.93,0,0,0,3.85,4.71h1.24a3.91,3.91,0,0,0,3.45-2.06c7.49-14,53.2-95,115.56-111.17a7.85,7.85,0,0,0,5.85-8.19l-1.23-16.68A7.87,7.87,0,0,0,196.66,61.42Z"/></g></svg>