<svg xmlns="http://www.w3.org/2000/svg" viewBox="0 0 489.29 402.03"><defs><style>.cls-1{isolation:isolate;}.cls-2{fill:#fff;}.cls-3,.cls-5{fill:#001c30;}.cls-3,.cls-4{mix-blend-mode:multiply;}.cls-5{stroke:#fff;stroke-miterlimit:10;stroke-width:10px;}</style></defs><g class="cls-1"><g id="OBJECTS"><path class="cls-2" d="M368.49,290.58C349.12,305.79,325,314,300.67,318q-3.19.57-6.4,1c-4.92.7-9.86,1.23-14.81,1.66a25.06,25.06,0,0,0-22.91,25v34.21a5.65,5.65,0,0,1-9.83,3.83c-12.24-13.89-31.92-26-52.55-35.92-6-2.93-12.16-5.65-18.25-8.16a529.94,529.94,0,0,0-65.36-22.2c-5.23-1.23-10.4-2.67-15.47-4.37-.32-.11-.59-.16-.86-.27-1.44-.48-2.82-1-4.21-1.44l-.59-.21V311c-21.4-7.84-41.08-20-55.65-37.35C13.29,249.17,4.65,216.89,1.39,185.2c-4.16-41,.32-85.32,23-120.64C47.39,28.65,85.8,9.22,127.21,3.09c35.32-5.28,71.23-2.35,107-1.6C277.78,2.45,324.63,1,361.08,25c20.81,13.72,36.12,34.85,45.4,58s12.92,48.24,13.45,73.21C421.05,205.9,407.71,259.85,368.49,290.58Z"/><circle class="cls-3" cx="143.89" cy="160.54" r="24.14"/><circle class="cls-3" cx="210" cy="160.54" r="24.14"/><circle class="cls-3" cx="276.1" cy="160.54" r="24.14"/><g class="cls-4"><path class="cls-5" d="M299.58,349.46c9.71,7.62,21.8,11.71,34,13.72,1.07.19,2.13.35,3.2.48,2.47.35,5,.62,7.43.83A12.56,12.56,0,0,1,355.69,377v17.15a2.83,2.83,0,0,0,4.93,1.92c6.13-7,16-13,26.34-18,3-1.47,6.1-2.84,9.15-4.1a265.51,265.51,0,0,1,32.76-11.12c2.62-.62,5.22-1.34,7.76-2.19l.43-.14,2.11-.72.29-.11v0c10.73-3.94,20.6-10,27.9-18.73,10.27-12.25,14.6-28.43,16.23-44.31,2.09-20.55-.16-42.77-11.52-60.48-11.53-18-30.79-27.73-51.54-30.81-17.71-2.65-35.71-1.18-53.63-.8-21.85.48-45.33-.27-63.6,11.77-10.43,6.87-18.11,17.46-22.76,29.07s-6.48,24.18-6.74,36.7C273.24,307,279.92,334.05,299.58,349.46Z"/><circle class="cls-2" cx="412.16" cy="284.28" r="12.1"/><circle class="cls-2" cx="379.03" cy="284.28" r="12.1"/><circle class="cls-2" cx="345.89" cy="284.28" r="12.1"/></g></g></g></svg>